<svg xmlns="http://www.w3.org/2000/svg" viewBox="0 0 240 64" role="img" aria-labelledby="title">
<title>TikTok</title>
<g transform="translate(8,9)">
  <path d="M24 5c3 7 7 11.4 14 14v9.4c-5.1-.2-9.8-1.9-14-4.9V36c0 10.1-7.5 17-17.2 17C1.3 53-3 48.6-3 42.8c0-7.3 5.7-12.9 13.2-12.9 1 0 2 .1 3 .4v8.1c-.8-.4-1.7-.5-2.6-.5-3.5 0-6 2.2-6 5.3 0 3.2 2.4 5.3 5.6 5.3 4.3 0 6.8-3 6.8-8V5h7z" fill="#111111"/>
  <path d="M16.5 5.5c3 7 7 11.4 14 14" fill="none" stroke="#25F4EE" stroke-width="4" stroke-linecap="round"/>
  <path d="M21.5 3.5c3 7 7 11.4 14 14" fill="none" stroke="#FE2C55" stroke-width="4" stroke-linecap="round" opacity=".9"/>
</g>
<text x="60" y="44" font-family="Arial, Helvetica, sans-serif" font-size="34" font-weight="700" fill="#111111">TikTok</text>
</svg>